<?xml version="1.0" ?><svg height="512" id="svg3255" version="1.1" width="512" xmlns="http://www.w3.org/2000/svg" xmlns:cc="http://creativecommons.org/ns#" xmlns:dc="http://purl.org/dc/elements/1.1/" xmlns:inkscape="http://www.inkscape.org/namespaces/inkscape" xmlns:rdf="http://www.w3.org/1999/02/22-rdf-syntax-ns#" xmlns:sodipodi="http://sodipodi.sourceforge.net/DTD/sodipodi-0.dtd" xmlns:svg="http://www.w3.org/2000/svg"><defs id="defs3257"/><g id="layer1" transform="translate(0,-540.36218)"><g id="g3003" transform="matrix(1.5,0,0,1.5,-719,-69.681098)"><g id="g4172" transform="matrix(0.25,0,0,0.25,550,383.02164)"><rect height="700" id="rect3263" style="color:#000000;fill:#222222;fill-opacity:1;fill-rule:nonzero;stroke:none;stroke-width:1.44799995;marker:none;visibility:visible;display:inline;overflow:visible;enable-background:accumulate" width="900" x="0" y="352.36218"/><rect height="600" id="rect3263-1" style="color:#000000;fill:#ffffff;fill-opacity:1;fill-rule:nonzero;stroke:none;stroke-width:1.44819915;marker:none;visibility:visible;display:inline;overflow:visible;enable-background:accumulate" width="800" x="50" y="402.36218"/></g><g id="g4167" transform="matrix(0.25,0,0,0.25,562.55979,374.36281)"><rect height="500" id="rect3263-7" style="color:#000000;fill:#222222;fill-opacity:1;fill-rule:nonzero;stroke:none;stroke-width:1.44819915;marker:none;visibility:visible;display:inline;overflow:visible;enable-background:accumulate" width="700" x="-250.23915" y="736.9975"/><rect height="400" id="rect3263-1-4" style="color:#000000;fill:#ffffff;fill-opacity:1;fill-rule:nonzero;stroke:none;stroke-width:1.44819915;marker:none;visibility:visible;display:inline;overflow:visible;enable-background:accumulate" width="550" x="-200.23915" y="786.9975"/><path d="m -385.71426,736.64789 c 0,41.81584 -79.30956,75.71428 -177.14286,75.71428 -97.83329,0 -177.14285,-33.89844 -177.14285,-75.71428 0,-41.81585 79.30956,-75.71429 177.14285,-75.71429 97.8333,0 177.14286,33.89844 177.14286,75.71429 z" id="path4072" style="color:#000000;fill:#ffffff;fill-opacity:1;fill-rule:nonzero;stroke:none;stroke-width:1;marker:none;visibility:visible;display:inline;overflow:visible;enable-background:accumulate" transform="matrix(0.11290323,0,0,0.26415094,463.30912,792.41143)"/></g><rect height="25" id="rect4182" style="color:#000000;fill:#cccccc;fill-opacity:1;fill-rule:nonzero;stroke:none;stroke-width:1.44799995;marker:none;visibility:visible;display:inline;overflow:visible;enable-background:accumulate" width="132.5" x="515" y="597.36218"/><rect height="43.75" id="rect4182-4" style="color:#000000;fill:#cccccc;fill-opacity:1;fill-rule:nonzero;stroke:none;stroke-width:1.44799995;marker:none;visibility:visible;display:inline;overflow:visible;enable-background:accumulate" width="42.5" x="515" y="624.86218"/><rect height="43.75" id="rect4182-4-5" style="color:#000000;fill:#cccccc;fill-opacity:1;fill-rule:nonzero;stroke:none;stroke-width:1.44799995;marker:none;visibility:visible;display:inline;overflow:visible;enable-background:accumulate" width="42.5" x="560" y="624.86218"/><rect height="43.75" id="rect4182-4-51" style="color:#000000;fill:#cccccc;fill-opacity:1;fill-rule:nonzero;stroke:none;stroke-width:1.44799995;marker:none;visibility:visible;display:inline;overflow:visible;enable-background:accumulate" width="42.5" x="605" y="624.86218"/><rect height="25" id="rect4182-1" style="color:#000000;fill:#cccccc;fill-opacity:1;fill-rule:nonzero;stroke:none;stroke-width:1.44799995;marker:none;visibility:visible;display:inline;overflow:visible;enable-background:accumulate" width="195" x="565" y="514.86218"/><rect height="16.25" id="rect4182-4-1" style="color:#000000;fill:#cccccc;fill-opacity:1;fill-rule:nonzero;stroke:none;stroke-width:1.44799995;marker:none;visibility:visible;display:inline;overflow:visible;enable-background:accumulate" width="46.875" x="565" y="542.36218"/><rect height="16.25" id="rect4182-4-5-5" style="color:#000000;fill:#cccccc;fill-opacity:1;fill-rule:nonzero;stroke:none;stroke-width:1.44799995;marker:none;visibility:visible;display:inline;overflow:visible;enable-background:accumulate" width="46.875" x="614.375" y="542.36218"/><path d="m 663.75,542.36218 0,16.25 11.25,0 0,72.5 35.625,0 0,-88.75 -46.875,0 z" id="rect4182-4-51-2" style="color:#000000;fill:#cccccc;fill-opacity:1;fill-rule:nonzero;stroke:none;stroke-width:1.44799995;marker:none;visibility:visible;display:inline;overflow:visible;enable-background:accumulate"/><rect height="88.75" id="rect4182-4-51-2-2" style="color:#000000;fill:#cccccc;fill-opacity:1;fill-rule:nonzero;stroke:none;stroke-width:1.44799995;marker:none;visibility:visible;display:inline;overflow:visible;enable-background:accumulate" width="46.875" x="713.125" y="542.36218"/><g id="g4163" transform="matrix(0.25,0,0,0.25,551.4308,374.45146)"><path d="m 819.27679,836.64286 c -1.72589,0 -3.40381,0.167 -5.03125,0.5 -1.62744,0.333 -3.19202,0.8361 -4.6875,1.4688 -1.49548,0.6325 -2.91999,1.4139 -4.25,2.3124 -1.33001,0.8986 -2.55647,1.9003 -3.6875,3.0313 -1.13103,1.131 -2.16396,2.3888 -3.0625,3.7187 -0.89854,1.3302 -1.67997,2.7547 -2.3125,4.25 -0.63253,1.4955 -1.10448,3.06 -1.4375,4.6876 -0.33302,1.6273 -0.53125,3.3053 -0.53125,5.0312 l 0,300.00004 c 0,1.7259 0.19823,3.404 0.53125,5.0312 0.33302,1.6277 0.80497,3.2233 1.4375,4.7188 0.63253,1.4955 1.41396,2.8885 2.3125,4.2188 0.89854,1.3298 1.93147,2.5877 3.0625,3.7187 1.13103,1.131 2.35749,2.164 3.6875,3.0625 1.33001,0.8985 2.75452,1.6489 4.25,2.2812 1.49548,0.6327 3.06006,1.1358 4.6875,1.4688 1.62744,0.333 3.30536,0.5 5.03125,0.5 l 150,0 c 1.72589,0 3.43506,-0.167 5.0625,-0.5 1.62744,-0.333 3.19202,-0.836 4.6875,-1.4688 1.49548,-0.6323 2.91999,-1.3827 4.25,-2.2812 1.33001,-0.8985 2.55647,-1.9315 3.6875,-3.0625 1.13103,-1.131 2.16396,-2.3889 3.0625,-3.7187 0.89854,-1.3302 1.64872,-2.7233 2.28125,-4.2188 0.63253,-1.4955 1.13573,-3.0911 1.46875,-4.7188 0.33302,-1.6273 0.5,-3.3053 0.5,-5.0312 l 0,-300.00004 c 0,-1.7259 -0.16698,-3.404 -0.5,-5.0312 -0.33302,-1.6277 -0.83622,-3.1921 -1.46875,-4.6876 -0.63253,-1.4953 -1.38271,-2.9198 -2.28125,-4.25 -0.89854,-1.3298 -1.93147,-2.5877 -3.0625,-3.7187 -1.13103,-1.131 -2.35749,-2.1327 -3.6875,-3.0313 -1.33001,-0.8985 -2.75452,-1.6799 -4.25,-2.3124 -1.49548,-0.6327 -3.06006,-1.1358 -4.6875,-1.4688 -1.62744,-0.333 -3.33661,-0.5 -5.0625,-0.5 l -150,0 z" id="path4101" style="color:#000000;fill:#222222;fill-opacity:1;fill-rule:nonzero;stroke:none;stroke-width:1.44819915;marker:none;visibility:visible;display:inline;overflow:visible;enable-background:accumulate"/><rect height="250" id="rect3263-1-4-9" style="color:#000000;fill:#ffffff;fill-opacity:1;fill-rule:nonzero;stroke:none;stroke-width:1.44819915;marker:none;visibility:visible;display:inline;overflow:visible;enable-background:accumulate" width="150" x="819.28571" y="886.64288"/></g><rect height="17.5" id="rect4182-16" style="color:#000000;fill:#cccccc;fill-opacity:1;fill-rule:nonzero;stroke:none;stroke-width:1.44799995;marker:none;visibility:visible;display:inline;overflow:visible;enable-background:accumulate" width="32.5" x="758.75" y="611.11218"/><rect height="27.5" id="rect4182-16-8" style="color:#000000;fill:#cccccc;fill-opacity:1;fill-rule:nonzero;stroke:none;stroke-width:1.44799995;marker:none;visibility:visible;display:inline;overflow:visible;enable-background:accumulate" width="32.5" x="758.75" y="631.11218"/></g></g></svg>